<svg width="21" height="21" viewBox="0 0 21 21" fill="none" xmlns="http://www.w3.org/2000/svg">
<path d="M12.25 5.35H12.35V5.25V3.5V3.4H12.25H8.75H8.65V3.5V5.25V5.35H8.75H12.25ZM3.5 6.9H3.4V7V16.625V16.725H3.5H17.5H17.6V16.625V7V6.9H17.5H3.5ZM3.5 18.275C2.58398 18.275 1.85 17.541 1.85 16.625L1.85875 7.00009V7C1.85875 6.08332 2.58463 5.35 3.5 5.35H7H7.1V5.25V3.5C7.1 2.58398 7.83398 1.85 8.75 1.85H12.25C13.166 1.85 13.9 2.58398 13.9 3.5V5.25V5.35H14H17.5C18.416 5.35 19.15 6.08398 19.15 7V16.625C19.15 17.541 18.416 18.275 17.5 18.275H3.5Z" fill="#212121" stroke="white" stroke-width="0.2"/>
</svg>
