<svg width="49" height="49" viewBox="0 0 49 49" fill="none" xmlns="http://www.w3.org/2000/svg">
<g clip-path="url(#clip0_69_148)">
<path d="M5.62754 24.4998C5.62198 28.8625 7.13454 33.0911 9.90581 36.4606L10.0808 36.6734L10.2757 36.4785L36.476 10.2782L36.6712 10.083L36.4576 9.90808C33.694 7.64347 30.3442 6.21002 26.7978 5.77446C23.2515 5.3389 19.6544 5.91913 16.4249 7.44768C13.1953 8.97622 10.4662 11.3902 8.55474 14.409C6.64337 17.4276 5.62828 20.9269 5.62754 24.4998ZM5.62754 24.4998L5.87754 24.5001L5.62754 24.5001C5.62754 24.5 5.62754 24.4999 5.62754 24.4998ZM24.4979 43.3677C28.0703 43.3671 31.5692 42.3524 34.5876 40.4417C37.6062 38.5309 40.0203 35.8024 41.5493 32.5736C43.0783 29.3448 43.6592 25.7483 43.2247 22.2023C42.7901 18.6564 41.3579 15.3066 39.0945 12.5425L38.9196 12.3289L38.7243 12.5241L12.524 38.722L12.3292 38.9168L12.542 39.0918C15.9096 41.8626 20.1369 43.3744 24.4979 43.3677ZM1.22754 24.5001C1.22754 11.6483 11.6457 1.2301 24.5 1.2301C37.3494 1.2301 47.77 11.6483 47.77 24.5001C47.77 37.3544 37.3494 47.7726 24.5 47.7726C21.4437 47.7729 18.4173 47.1711 15.5936 46.0017C12.7699 44.8323 10.2043 43.118 8.04316 40.9569C5.88206 38.7958 4.16783 36.2302 2.9984 33.4065C1.82896 30.5828 1.22722 27.5564 1.22754 24.5001Z" fill="#165432" stroke="white" stroke-width="0.5"/>
</g>
<defs>
<clipPath id="clip0_69_148">
<rect width="49" height="49" fill="white"/>
</clipPath>
</defs>
</svg>
