<svg width="19" height="19" viewBox="0 0 19 19" fill="none" xmlns="http://www.w3.org/2000/svg">
<path d="M17.6513 8.28066L14.3014 7.76455L12.2599 4.42953C12.1527 4.25497 12.0023 4.11102 11.8232 4.01161C11.6441 3.9122 11.4424 3.8607 11.2376 3.86209L2.68171 3.93026C2.43484 3.93234 2.19476 4.01127 1.99481 4.15608C1.79487 4.30089 1.64499 4.50438 1.56602 4.73828L0.59375 7.62134V14.25H2.63499C2.79367 14.7658 3.11354 15.2172 3.54764 15.5378C3.98174 15.8584 4.5072 16.0315 5.04687 16.0315C5.58655 16.0315 6.11201 15.8584 6.54611 15.5378C6.98021 15.2172 7.30008 14.7658 7.45876 14.25H11.2444C11.403 14.7658 11.7229 15.2172 12.157 15.5378C12.5911 15.8584 13.1166 16.0315 13.6562 16.0315C14.1959 16.0315 14.7214 15.8584 15.1555 15.5378C15.5896 15.2172 15.9095 14.7658 16.0681 14.25H18.4062V9.1609C18.4072 8.94794 18.3314 8.74175 18.1928 8.58009C18.0542 8.41844 17.8619 8.31214 17.6513 8.28066ZM8.3125 5.07286L11.247 5.04948L12.8836 7.7231L8.3125 7.7215V5.07286ZM2.69121 5.11768L7.125 5.08236V7.72109L1.81394 7.7192L2.69121 5.11768ZM5.04687 14.8438C4.78265 14.8438 4.52436 14.7654 4.30467 14.6186C4.08497 14.4718 3.91374 14.2632 3.81263 14.0191C3.71152 13.7749 3.68506 13.5063 3.73661 13.2472C3.78815 12.988 3.91539 12.75 4.10222 12.5632C4.28906 12.3763 4.5271 12.2491 4.78625 12.1975C5.04539 12.146 5.314 12.1725 5.55812 12.2736C5.80223 12.3747 6.01087 12.5459 6.15767 12.7656C6.30446 12.9853 6.38281 13.2436 6.38281 13.5078C6.38242 13.862 6.24154 14.2016 5.99109 14.452C5.74064 14.7025 5.40107 14.8434 5.04687 14.8438ZM13.6562 14.8438C13.392 14.8438 13.1337 14.7654 12.914 14.6186C12.6943 14.4718 12.5231 14.2632 12.422 14.0191C12.3209 13.7749 12.2944 13.5063 12.346 13.2472C12.3975 12.988 12.5248 12.75 12.7116 12.5632C12.8984 12.3763 13.1365 12.2491 13.3956 12.1975C13.6548 12.146 13.9234 12.1725 14.1675 12.2736C14.4116 12.3747 14.6202 12.5459 14.767 12.7656C14.9138 12.9853 14.9922 13.2436 14.9922 13.5078C14.9918 13.862 14.8509 14.2016 14.6005 14.452C14.35 14.7025 14.0104 14.8434 13.6562 14.8438ZM17.2187 13.0625H16.1395C16.0352 12.4798 15.7293 11.9523 15.2753 11.5724C14.8213 11.1925 14.2482 10.9843 13.6562 10.9843C13.0643 10.9843 12.4912 11.1925 12.0372 11.5724C11.5832 11.9523 11.2773 12.4798 11.173 13.0625H7.53016C7.42584 12.4798 7.11992 11.9523 6.66594 11.5724C6.21197 11.1925 5.63885 10.9843 5.04687 10.9843C4.4549 10.9843 3.88178 11.1925 3.42781 11.5724C2.97383 11.9523 2.66791 12.4798 2.56359 13.0625H1.78125V8.90722L14.0469 8.92685L17.2187 9.41554V13.0625Z" fill="black"/>
</svg>
