<svg width="51" height="51" viewBox="0 0 51 51" fill="none" xmlns="http://www.w3.org/2000/svg">
<path d="M15.9375 25.5C15.9375 26.3454 15.6017 27.1561 15.0039 27.7539C14.4061 28.3517 13.5954 28.6875 12.75 28.6875C11.9046 28.6875 11.0939 28.3517 10.4961 27.7539C9.89832 27.1561 9.5625 26.3454 9.5625 25.5C9.5625 24.6546 9.89832 23.8439 10.4961 23.2461C11.0939 22.6483 11.9046 22.3125 12.75 22.3125C13.5954 22.3125 14.4061 22.6483 15.0039 23.2461C15.6017 23.8439 15.9375 24.6546 15.9375 25.5ZM28.6875 25.5C28.6875 26.3454 28.3517 27.1561 27.7539 27.7539C27.1561 28.3517 26.3454 28.6875 25.5 28.6875C24.6546 28.6875 23.8439 28.3517 23.2461 27.7539C22.6483 27.1561 22.3125 26.3454 22.3125 25.5C22.3125 24.6546 22.6483 23.8439 23.2461 23.2461C23.8439 22.6483 24.6546 22.3125 25.5 22.3125C26.3454 22.3125 27.1561 22.6483 27.7539 23.2461C28.3517 23.8439 28.6875 24.6546 28.6875 25.5ZM38.25 28.6875C39.0954 28.6875 39.9061 28.3517 40.5039 27.7539C41.1017 27.1561 41.4375 26.3454 41.4375 25.5C41.4375 24.6546 41.1017 23.8439 40.5039 23.2461C39.9061 22.6483 39.0954 22.3125 38.25 22.3125C37.4046 22.3125 36.5939 22.6483 35.9961 23.2461C35.3983 23.8439 35.0625 24.6546 35.0625 25.5C35.0625 26.3454 35.3983 27.1561 35.9961 27.7539C36.5939 28.3517 37.4046 28.6875 38.25 28.6875Z" fill="#165432"/>
<path d="M6.90094 50.3721L6.96469 50.3593C12.7978 49.2022 16.3614 47.6754 18.0189 46.8371C20.4592 47.488 22.9744 47.8159 25.5 47.8125C39.5824 47.8125 51 37.8229 51 25.5C51 13.1771 39.5824 3.1875 25.5 3.1875C11.4176 3.1875 0 13.1771 0 25.5C0 31.11 2.36831 36.2419 6.27938 40.1625C6.00575 42.6809 5.44537 45.1599 4.60913 47.5511L4.59956 47.5862C4.36191 48.2711 4.10253 48.9482 3.82181 49.6166C3.57 50.2095 4.05769 50.8725 4.692 50.7705C5.43042 50.6497 6.16683 50.5168 6.90094 50.3721ZM9.45094 40.4653C9.49559 39.9986 9.43675 39.5279 9.27863 39.0866C9.1205 38.6453 8.86698 38.2442 8.53613 37.9121C5.15738 34.5206 3.1875 30.1793 3.1875 25.5C3.1875 15.3255 12.7627 6.375 25.5 6.375C38.2373 6.375 47.8125 15.3255 47.8125 25.5C47.8125 35.6777 38.2373 44.625 25.5 44.625C23.2531 44.6283 21.0155 44.3368 18.8445 43.758C18.0858 43.5547 17.2788 43.6387 16.5782 43.9939C15.3446 44.6186 12.6257 45.8107 8.18231 46.8403C8.80221 44.7593 9.22692 42.6251 9.45094 40.4653Z" fill="#165432"/>
</svg>
