<svg width="19" height="19" viewBox="0 0 19 19" fill="none" xmlns="http://www.w3.org/2000/svg">
<g clip-path="url(#clip0_436_1464)">
<path d="M6.22923 0.245421L0.245816 6.22963C0.167928 6.30684 0.106104 6.39871 0.0639134 6.49994C0.0217225 6.60117 0 6.70975 0 6.81942C0 6.92909 0.0217225 7.03767 0.0639134 7.1389C0.106104 7.24013 0.167928 7.332 0.245816 7.40921L11.5904 18.7546C11.6674 18.8325 11.7591 18.8944 11.8602 18.9366C11.9613 18.9789 12.0698 19.0006 12.1794 19.0006C12.289 19.0006 12.3975 18.9789 12.4986 18.9366C12.5997 18.8944 12.6914 18.8325 12.7684 18.7546L18.7526 12.7704C18.8305 12.6932 18.8923 12.6013 18.9345 12.5001C18.9767 12.3988 18.9984 12.2903 18.9984 12.1806C18.9984 12.0709 18.9767 11.9623 18.9345 11.8611C18.8923 11.7599 18.8305 11.668 18.7526 11.5908L7.40802 0.246213C7.33082 0.168325 7.23895 0.106501 7.13772 0.0643101C7.03649 0.0221192 6.9279 0.000396729 6.81823 0.000396729C6.70856 0.000396729 6.59998 0.0221192 6.49875 0.0643101C6.39752 0.106501 6.30565 0.168325 6.22844 0.246213L6.22923 0.245421ZM13.089 16.3139C12.9831 16.4254 12.8558 16.5146 12.7148 16.5761C12.5738 16.6376 12.4219 16.6702 12.2681 16.6719C12.1143 16.6737 11.9617 16.6446 11.8193 16.5863C11.6769 16.528 11.5477 16.4418 11.4392 16.3327C11.3308 16.2236 11.2453 16.0939 11.1879 15.9512C11.1304 15.8084 11.1022 15.6557 11.1049 15.5019C11.1075 15.348 11.141 15.1963 11.2033 15.0557C11.2656 14.915 11.3555 14.7883 11.4677 14.683C11.6863 14.4808 11.9749 14.3712 12.2727 14.3774C12.5706 14.3836 12.8543 14.505 13.0644 14.7162C13.2745 14.9274 13.3944 15.2118 13.399 15.5097C13.4036 15.8075 13.2925 16.0955 13.089 16.3131V16.3139ZM10.8953 14.1257C10.7898 14.2386 10.6625 14.329 10.5212 14.3916C10.3799 14.4542 10.2274 14.4876 10.0729 14.4898C9.91833 14.492 9.76493 14.4631 9.62185 14.4046C9.47878 14.3462 9.34897 14.2595 9.24019 14.1497C9.13142 14.0399 9.04591 13.9093 8.9888 13.7657C8.93169 13.6221 8.90415 13.4684 8.90782 13.3139C8.91149 13.1594 8.94631 13.0072 9.01018 12.8665C9.07404 12.7258 9.16566 12.5994 9.27952 12.4949C9.49874 12.2962 9.78619 12.1897 10.082 12.1977C10.3777 12.2057 10.659 12.3274 10.8672 12.5377C11.0754 12.7479 11.1945 13.0304 11.1995 13.3262C11.2046 13.6221 11.0954 13.9084 10.8945 14.1257H10.8953ZM8.7024 11.9328C8.59646 12.0443 8.46922 12.1335 8.32822 12.195C8.18721 12.2565 8.0353 12.2891 7.88148 12.2908C7.72766 12.2926 7.57505 12.2635 7.43268 12.2052C7.29031 12.1469 7.16107 12.0607 7.05261 11.9516C6.94415 11.8425 6.85868 11.7128 6.80124 11.5701C6.74381 11.4274 6.71559 11.2746 6.71824 11.1208C6.72089 10.967 6.75437 10.8152 6.81669 10.6746C6.87901 10.534 6.96891 10.4072 7.08107 10.302C7.29972 10.0997 7.58831 9.9901 7.88612 9.99628C8.18393 10.0025 8.46772 10.1239 8.67778 10.3351C8.88785 10.5463 9.00779 10.8308 9.01239 11.1286C9.01698 11.4264 8.90585 11.7144 8.7024 11.932V11.9328ZM6.50869 9.73909C6.31995 9.92552 6.07247 10.0408 5.80831 10.0654C5.54416 10.09 5.27965 10.0223 5.05976 9.87388C4.83987 9.72545 4.67818 9.50545 4.60218 9.25127C4.52618 8.9971 4.54056 8.72445 4.64288 8.47968C4.74521 8.23491 4.92915 8.03314 5.16344 7.90868C5.39772 7.78422 5.66789 7.74475 5.92799 7.79698C6.18809 7.84921 6.42207 7.98992 6.59014 8.19518C6.75822 8.40044 6.85 8.65758 6.8499 8.92288V8.92367C6.84962 9.0753 6.81941 9.22539 6.76099 9.36532C6.70257 9.50525 6.6171 9.63227 6.50948 9.73909H6.50869ZM4.32052 7.54617C4.13179 7.73261 3.8843 7.84792 3.62015 7.87249C3.35599 7.89706 3.09148 7.82938 2.87159 7.68096C2.6517 7.53254 2.49001 7.31253 2.41401 7.05836C2.33801 6.80418 2.3524 6.53153 2.45472 6.28676C2.55704 6.042 2.74098 5.84023 2.97527 5.71576C3.20956 5.5913 3.47972 5.55183 3.73982 5.60406C3.99992 5.65629 4.2339 5.797 4.40198 6.00226C4.57005 6.20753 4.66184 6.46467 4.66173 6.72996V6.73075C4.66145 6.88239 4.63124 7.03247 4.57282 7.1724C4.51441 7.31233 4.42894 7.43935 4.32132 7.54617H4.32052ZM16.3103 13.0918C16.1217 13.2784 15.8744 13.394 15.6102 13.4188C15.3461 13.4436 15.0815 13.3762 14.8614 13.2279C14.6414 13.0797 14.4795 12.8598 14.4033 12.6057C14.3271 12.3516 14.3412 12.0789 14.4434 11.834C14.5455 11.5892 14.7293 11.3873 14.9635 11.2626C15.1977 11.1379 15.4678 11.0983 15.728 11.1503C15.9881 11.2023 16.2222 11.3429 16.3905 11.548C16.5587 11.7532 16.6507 12.0103 16.6507 12.2756V12.2772C16.6505 12.4288 16.6202 12.5789 16.5618 12.7188C16.5034 12.8587 16.4179 12.9858 16.3103 13.0926V13.0918ZM14.1174 10.8981C13.9288 11.0847 13.6814 11.2003 13.4173 11.2251C13.1532 11.2499 12.8886 11.1825 12.6685 11.0342C12.4485 10.886 12.2866 10.6661 12.2104 10.412C12.1342 10.1579 12.1483 9.8852 12.2504 9.64034C12.3526 9.39547 12.5364 9.19354 12.7706 9.06889C13.0048 8.94423 13.2749 8.90455 13.5351 8.95659C13.7952 9.00863 14.0293 9.14917 14.1975 9.35433C14.3658 9.55948 14.4577 9.81657 14.4578 10.0819V10.0835C14.4575 10.2351 14.4273 10.3852 14.3689 10.5251C14.3105 10.665 14.225 10.7921 14.1174 10.8989V10.8981ZM11.9237 8.70517C11.7351 8.8918 11.4877 9.00735 11.2236 9.03217C10.9594 9.057 10.6949 8.98955 10.4748 8.84132C10.2548 8.69309 10.0929 8.47321 10.0167 8.21909C9.94045 7.96497 9.9546 7.69229 10.0567 7.44742C10.1589 7.20256 10.3426 7.00063 10.5768 6.87597C10.811 6.75132 11.0812 6.71164 11.3413 6.76367C11.6015 6.81571 11.8356 6.95626 12.0038 7.16141C12.1721 7.36656 12.264 7.62365 12.2641 7.88896V7.89054C12.2638 8.04218 12.2336 8.19226 12.1752 8.33219C12.1168 8.47212 12.0313 8.59914 11.9237 8.70596V8.70517ZM9.73552 6.517C9.54679 6.70344 9.2993 6.81875 9.03515 6.84332C8.77099 6.8679 8.50648 6.80022 8.28659 6.65179C8.0667 6.50337 7.90501 6.28337 7.82901 6.02919C7.75301 5.77502 7.7674 5.50236 7.86972 5.2576C7.97204 5.01283 8.15598 4.81106 8.39027 4.6866C8.62456 4.56213 8.89472 4.52266 9.15482 4.57489C9.41492 4.62713 9.6489 4.76784 9.81698 4.9731C9.98505 5.17836 10.0768 5.4355 10.0767 5.7008V5.70159C10.0765 5.85322 10.0462 6.00331 9.98782 6.14324C9.92941 6.28316 9.84394 6.41018 9.73632 6.517H9.73552ZM7.54261 4.32409C7.35387 4.51052 7.10638 4.62583 6.84223 4.65041C6.57808 4.67498 6.31356 4.6073 6.09368 4.45888C5.87379 4.31045 5.71209 4.09045 5.63609 3.83628C5.56009 3.5821 5.57448 3.30945 5.6768 3.06468C5.77912 2.81991 5.96307 2.61814 6.19735 2.49368C6.43164 2.36922 6.7018 2.32975 6.9619 2.38198C7.22201 2.43421 7.45599 2.57492 7.62406 2.78018C7.79213 2.98544 7.88392 3.24258 7.88382 3.50788V3.50867C7.88354 3.6603 7.85332 3.81039 7.79491 3.95032C7.73649 4.09025 7.65102 4.21727 7.5434 4.32409H7.54261Z" fill="#212121"/>
</g>
<defs>
<clipPath id="clip0_436_1464">
<rect width="19" height="19" fill="white"/>
</clipPath>
</defs>
</svg>
