<svg width="20" height="20" viewBox="0 0 20 20" fill="none" xmlns="http://www.w3.org/2000/svg">
<path d="M16.25 18.75H15V16.875C14.999 16.0465 14.6694 15.2522 14.0836 14.6664C13.4978 14.0806 12.7035 13.751 11.875 13.75H8.125C7.2965 13.751 6.50222 14.0806 5.91639 14.6664C5.33055 15.2522 5.00099 16.0465 5 16.875V18.75H3.75V16.875C3.75132 15.7151 4.21268 14.6031 5.03287 13.7829C5.85305 12.9627 6.96508 12.5013 8.125 12.5H11.875C13.0349 12.5013 14.1469 12.9627 14.9671 13.7829C15.7873 14.6031 16.2487 15.7151 16.25 16.875V18.75Z" fill="black"/>
<path d="M3.125 3.75C2.95924 3.75 2.80027 3.81585 2.68306 3.93306C2.56585 4.05027 2.5 4.20924 2.5 4.375V10H3.75V4.375C3.75 4.20924 3.68415 4.05027 3.56694 3.93306C3.44973 3.81585 3.29076 3.75 3.125 3.75Z" fill="black"/>
<path d="M2.5 1.25V2.5H5.625V6.875C5.625 8.03532 6.08594 9.14812 6.90641 9.96859C7.72688 10.7891 8.83968 11.25 10 11.25C11.1603 11.25 12.2731 10.7891 13.0936 9.96859C13.9141 9.14812 14.375 8.03532 14.375 6.875V2.5H17.5V1.25H2.5ZM6.875 2.5H13.125V4.375H6.875V2.5ZM10 10C9.1712 10 8.37634 9.67076 7.79029 9.08471C7.20424 8.49866 6.875 7.7038 6.875 6.875V5.625H13.125V6.875C13.125 7.7038 12.7958 8.49866 12.2097 9.08471C11.6237 9.67076 10.8288 10 10 10Z" fill="black"/>
</svg>
