<svg width="20" height="20" viewBox="0 0 20 20" fill="none" xmlns="http://www.w3.org/2000/svg">
<g clip-path="url(#clip0_146_446)">
<path d="M18.8962 20.0001C19.5057 20.0001 20 19.5059 20 18.8962V1.10383C20 0.494141 19.5057 0 18.8962 0H1.10383C0.494062 0 0 0.494141 0 1.10383V18.8962C0 19.5059 0.494062 20.0001 1.10383 20.0001H18.8962Z" fill="#395185"/>
<path d="M13.7995 20.0001V12.255H16.3993L16.7885 9.23663H13.7995V7.30945C13.7995 6.43554 14.0423 5.83999 15.2955 5.83999L16.8938 5.83929V3.13968C16.6173 3.10289 15.6685 3.0207 14.5648 3.0207C12.2602 3.0207 10.6826 4.42734 10.6826 7.01062V9.23663H8.07617V12.255H10.6826V20.0001H13.7995Z" fill="white"/>
</g>
<defs>
<clipPath id="clip0_146_446">
<rect width="20" height="20" fill="white"/>
</clipPath>
</defs>
</svg>
