<svg width="17" height="17" viewBox="0 0 17 17" fill="none" xmlns="http://www.w3.org/2000/svg">
<g clip-path="url(#clip0_436_1487)">
<path d="M12.2185 1.2125C12.0379 1.2125 11.8646 1.14073 11.7368 1.01297C11.6091 0.885207 11.5373 0.711928 11.5373 0.53125C11.5373 0.350572 11.6091 0.177293 11.7368 0.0495334M12.2185 1.2125L11.7368 0.0495334M12.2185 1.2125H14.824L11.6601 4.3764C11.2036 3.90557 10.6471 3.54221 10.031 3.31371C9.36556 3.06689 8.65026 2.98473 7.94616 3.07423C7.24205 3.16373 6.57005 3.42223 5.98749 3.82768C5.40493 4.23314 4.9291 4.7735 4.6006 5.40268C4.2721 6.03185 4.10068 6.73115 4.10098 7.44092C4.10127 8.15069 4.27326 8.84985 4.60228 9.47875C4.93129 10.1077 5.40757 10.6476 5.99046 11.0526C6.53705 11.4323 7.16217 11.6828 7.81854 11.7859V13.6625H6.37479C6.19411 13.6625 6.02083 13.7343 5.89307 13.862C5.76531 13.9898 5.69354 14.1631 5.69354 14.3438C5.69354 14.5244 5.76531 14.6977 5.89307 14.8255C6.02083 14.9532 6.19411 15.025 6.37479 15.025H7.81854V16.4688C7.81854 16.6494 7.89031 16.8227 8.01807 16.9505C8.14583 17.0782 8.31911 17.15 8.49979 17.15C8.68047 17.15 8.85375 17.0782 8.98151 16.9505C9.10927 16.8227 9.18104 16.6494 9.18104 16.4688V15.025H10.6248C10.8055 15.025 10.9787 14.9532 11.1065 14.8255C11.2343 14.6977 11.306 14.5244 11.306 14.3438C11.306 14.1631 11.2343 13.9898 11.1065 13.862C10.9787 13.7343 10.8055 13.6625 10.6248 13.6625H9.18104V11.7859C9.83686 11.6832 10.4616 11.4334 11.008 11.0544C11.5907 10.6502 12.0671 10.1112 12.3966 9.4832C12.7261 8.8552 12.899 8.15686 12.9004 7.44767C12.9017 6.77529 12.7489 6.11205 12.4544 5.5087L15.7873 2.17582V4.78125C15.7873 4.96193 15.8591 5.13521 15.9868 5.26297C16.1146 5.39073 16.2879 5.4625 16.4685 5.4625C16.6492 5.4625 16.8225 5.39073 16.9503 5.26297C17.078 5.13521 17.1498 4.96193 17.1498 4.78125V0.53125C17.1498 0.350572 17.078 0.177293 16.9503 0.0495337C16.8225 -0.0782257 16.6492 -0.15 16.4685 -0.15H12.2185C12.0379 -0.15 11.8646 -0.0782258 11.7368 0.0495334M12.2185 1.2125L11.7368 0.0495334M11.0341 5.76284L11.0668 5.81228C11.4863 6.47481 11.6337 7.27476 11.4767 8.04463C11.3157 8.83416 10.8476 9.52739 10.1755 9.97182C9.50335 10.4162 8.68219 10.5755 7.89266 10.4144C7.10314 10.2534 6.40991 9.78536 5.96549 9.11322C5.5212 8.44108 5.36211 7.61998 5.52323 6.83055C5.68434 6.04111 6.15246 5.34802 6.8246 4.90373C7.49674 4.45944 8.31784 4.30035 9.10727 4.46147C9.89671 4.62258 10.5898 5.0907 11.0341 5.76284Z" fill="#212121" stroke="#212121" stroke-width="0.3"/>
</g>
<defs>
<clipPath id="clip0_436_1487">
<rect width="17" height="17" fill="white"/>
</clipPath>
</defs>
</svg>
