<svg width="21" height="16" viewBox="0 0 21 16" fill="none" xmlns="http://www.w3.org/2000/svg">
<g clip-path="url(#clip0_146_440)">
<path d="M4.77274 15.9212V7.72145L2.25643 5.39499L0 4.10396V14.4742C0 15.2749 0.641895 15.9212 1.43186 15.9212H4.77274Z" fill="#4285F4"/>
<path d="M16.2273 15.9212H19.5682C20.3605 15.9212 21 15.2725 21 14.4742V4.10404L18.4443 5.58275L16.2273 7.72145V15.9212Z" fill="#34A853"/>
<path d="M4.77282 7.72145L4.43042 4.51756L4.77282 1.45111L10.5001 5.79217L16.2273 1.45111L16.6104 4.352L16.2273 7.72145L10.5001 12.0625L4.77282 7.72145Z" fill="#EA4335"/>
<path d="M16.2273 1.45111V7.72145L21 4.10396V2.17459C21 0.385163 18.9788 -0.634941 17.5637 0.43822L16.2273 1.45111Z" fill="#FBBC04"/>
<path d="M0 4.10382L2.19507 5.76765L4.77274 7.72131V1.45097L3.43629 0.43808C2.01879 -0.635163 0 0.385023 0 2.17437V4.10374V4.10382Z" fill="#C5221F"/>
</g>
<defs>
<clipPath id="clip0_146_440">
<rect width="21" height="16" fill="white"/>
</clipPath>
</defs>
</svg>
