<svg width="23" height="23" viewBox="0 0 23 23" fill="none" xmlns="http://www.w3.org/2000/svg">
<path d="M9.31022 11.5C10.4133 11.5 11.2269 10.6864 11.2269 9.58335C11.2269 8.48031 10.4133 7.66669 9.31022 7.66669C8.20718 7.66669 7.39355 8.48031 7.39355 9.58335C7.39355 10.6864 8.20622 11.5 9.31022 11.5Z" fill="#212121"/>
<path d="M19.167 3.83331H3.83366C2.77662 3.83331 1.91699 4.63927 1.91699 5.63019V17.3698C1.91699 18.3607 2.77662 19.1666 3.83366 19.1666H19.167C20.224 19.1666 21.0837 18.3607 21.0837 17.3698V5.63019C21.0837 4.63927 20.224 3.83331 19.167 3.83331ZM19.167 17.25L3.83366 17.2394V5.74998L19.167 5.76052V17.25Z" fill="#212121"/>
<path d="M13.4167 8.625H17.25V10.5417H13.4167V8.625ZM14.375 12.4583H17.25V14.375H14.375V12.4583ZM12.8704 14.8887C12.8704 13.5719 11.2643 12.2188 9.31021 12.2188C7.35617 12.2188 5.75 13.5719 5.75 14.8887V15.3333H12.8704V14.8887Z" fill="#212121"/>
</svg>
