<svg width="21" height="21" viewBox="0 0 21 21" fill="none" xmlns="http://www.w3.org/2000/svg">
<path d="M8.75 8.75C8.75 8.57694 8.69869 8.40777 8.60254 8.26388C8.50639 8.11998 8.36974 8.00783 8.20985 7.94161C8.04997 7.87538 7.87403 7.85805 7.7043 7.89181C7.53457 7.92558 7.37866 8.00891 7.25629 8.13128C7.13391 8.25365 7.05058 8.40956 7.01682 8.5793C6.98305 8.74903 7.00038 8.92496 7.06661 9.08485C7.13284 9.24473 7.24499 9.38139 7.38888 9.47754C7.53277 9.57368 7.70194 9.625 7.875 9.625C8.10707 9.625 8.32963 9.53281 8.49372 9.36872C8.65782 9.20462 8.75 8.98206 8.75 8.75ZM12.6875 12.3025C12.5882 12.2443 12.4783 12.2062 12.3642 12.1906C12.2502 12.1749 12.1341 12.1819 12.0227 12.2112C11.9114 12.2404 11.8069 12.2914 11.7152 12.3611C11.6236 12.4308 11.5466 12.518 11.4888 12.6175C11.3894 12.7921 11.2456 12.9374 11.0719 13.0384C10.8983 13.1394 10.7009 13.1926 10.5 13.1926C10.2991 13.1926 10.1018 13.1394 9.92808 13.0384C9.75441 12.9374 9.61059 12.7921 9.51125 12.6175C9.45336 12.518 9.37639 12.4308 9.28476 12.3611C9.19313 12.2914 9.08863 12.2404 8.97727 12.2112C8.8659 12.1819 8.74986 12.1749 8.63578 12.1906C8.52171 12.2062 8.41185 12.2443 8.3125 12.3025C8.11236 12.4179 7.966 12.6078 7.90535 12.8308C7.84469 13.0537 7.87468 13.2916 7.98875 13.4925C8.24254 13.9342 8.60835 14.3012 9.04926 14.5563C9.49016 14.8115 9.99058 14.9459 10.5 14.9459C11.0094 14.9459 11.5098 14.8115 11.9508 14.5563C12.3917 14.3012 12.7575 13.9342 13.0113 13.4925C13.1253 13.2916 13.1553 13.0537 13.0947 12.8308C13.034 12.6078 12.8876 12.4179 12.6875 12.3025ZM13.125 7.875C12.9519 7.875 12.7828 7.92632 12.6389 8.02246C12.495 8.11861 12.3828 8.25527 12.3166 8.41515C12.2504 8.57504 12.2331 8.75097 12.2668 8.9207C12.3006 9.09044 12.3839 9.24635 12.5063 9.36872C12.6287 9.49109 12.7846 9.57443 12.9543 9.60819C13.124 9.64195 13.3 9.62462 13.4599 9.5584C13.6197 9.49217 13.7564 9.38002 13.8525 9.23612C13.9487 9.09223 14 8.92306 14 8.75C14 8.51794 13.9078 8.29538 13.7437 8.13128C13.5796 7.96719 13.3571 7.875 13.125 7.875ZM10.5 1.75C8.76942 1.75 7.07769 2.26318 5.63876 3.22464C4.19983 4.1861 3.07832 5.55267 2.41606 7.15152C1.75379 8.75037 1.58051 10.5097 1.91813 12.207C2.25575 13.9044 3.08911 15.4635 4.31282 16.6872C5.53653 17.9109 7.09563 18.7443 8.79296 19.0819C10.4903 19.4195 12.2496 19.2462 13.8485 18.5839C15.4473 17.9217 16.8139 16.8002 17.7754 15.3612C18.7368 13.9223 19.25 12.2306 19.25 10.5C19.25 9.35093 19.0237 8.21312 18.5839 7.15152C18.1442 6.08992 17.4997 5.12533 16.6872 4.31282C15.8747 3.5003 14.9101 2.85578 13.8485 2.41605C12.7869 1.97633 11.6491 1.75 10.5 1.75ZM10.5 17.5C8.87015 17.507 7.28893 16.9451 6.02903 15.9111C4.76912 14.8772 3.90952 13.4359 3.59846 11.836C3.28739 10.2361 3.54437 8.57782 4.32507 7.14709C5.10577 5.71637 6.36125 4.60291 7.875 3.99875C7.866 4.12401 7.866 4.24974 7.875 4.375C7.875 5.07119 8.15156 5.73887 8.64385 6.23116C9.13613 6.72344 9.80381 7 10.5 7C10.7321 7 10.9546 6.90781 11.1187 6.74372C11.2828 6.57962 11.375 6.35706 11.375 6.125C11.375 5.89294 11.2828 5.67038 11.1187 5.50628C10.9546 5.34219 10.7321 5.25 10.5 5.25C10.2679 5.25 10.0454 5.15781 9.88129 4.99372C9.71719 4.82962 9.625 4.60706 9.625 4.375C9.625 4.14294 9.71719 3.92038 9.88129 3.75628C10.0454 3.59219 10.2679 3.5 10.5 3.5C12.3565 3.5 14.137 4.2375 15.4498 5.55025C16.7625 6.86301 17.5 8.64349 17.5 10.5C17.5 12.3565 16.7625 14.137 15.4498 15.4497C14.137 16.7625 12.3565 17.5 10.5 17.5Z" fill="#212121"/>
</svg>
