<svg width="20" height="20" viewBox="0 0 20 20" fill="none" xmlns="http://www.w3.org/2000/svg">
<path d="M10 10.8333C11.3807 10.8333 12.5 9.71403 12.5 8.33331C12.5 6.9526 11.3807 5.83331 10 5.83331C8.61929 5.83331 7.5 6.9526 7.5 8.33331C7.5 9.71403 8.61929 10.8333 10 10.8333Z" stroke="#9B9B9B" stroke-linecap="round" stroke-linejoin="round"/>
<path d="M9.99967 1.66666C8.23156 1.66666 6.53587 2.36904 5.28563 3.61928C4.03539 4.86952 3.33301 6.56521 3.33301 8.33332C3.33301 9.90999 3.66801 10.9417 4.58301 12.0833L9.99967 18.3333L15.4163 12.0833C16.3313 10.9417 16.6663 9.90999 16.6663 8.33332C16.6663 6.56521 15.964 4.86952 14.7137 3.61928C13.4635 2.36904 11.7678 1.66666 9.99967 1.66666V1.66666Z" stroke="#9B9B9B" stroke-linecap="round" stroke-linejoin="round"/>
</svg>
