<svg width="21" height="21" viewBox="0 0 21 21" fill="none" xmlns="http://www.w3.org/2000/svg">
<path d="M17.8012 15.0117H16.3595C16.2611 15.0117 16.1688 15.0548 16.1073 15.1307C15.9637 15.305 15.8099 15.4731 15.6479 15.6331C14.9853 16.2964 14.2004 16.825 13.3367 17.1896C12.4418 17.5676 11.48 17.7615 10.5087 17.7598C9.52633 17.7598 8.57477 17.567 7.68063 17.1896C6.8169 16.825 6.03202 16.2964 5.3694 15.6331C4.70559 14.9721 4.17629 14.1886 3.81081 13.326C3.43141 12.4318 3.24069 11.4823 3.24069 10.5C3.24069 9.51767 3.43346 8.56816 3.81081 7.67402C4.17585 6.81064 4.70085 6.0334 5.3694 5.36689C6.03796 4.70039 6.8152 4.17539 7.68063 3.81035C8.57477 3.43301 9.52633 3.24023 10.5087 3.24023C11.491 3.24023 12.4425 3.43096 13.3367 3.81035C14.2021 4.17539 14.9794 4.70039 15.6479 5.36689C15.8099 5.52891 15.9617 5.69707 16.1073 5.86934C16.1688 5.94521 16.2631 5.98828 16.3595 5.98828H17.8012C17.9304 5.98828 18.0104 5.84473 17.9386 5.73603C16.3657 3.2915 13.6135 1.67344 10.4861 1.68164C5.57243 1.69395 1.63288 5.68271 1.6821 10.5902C1.73132 15.4198 5.66471 19.3184 10.5087 19.3184C13.6279 19.3184 16.3677 17.7023 17.9386 15.264C18.0084 15.1553 17.9304 15.0117 17.8012 15.0117ZM19.6244 10.3708L16.7143 8.07393C16.6056 7.98779 16.4477 8.06572 16.4477 8.20312V9.76172H10.0083C9.91803 9.76172 9.8442 9.83555 9.8442 9.92578V11.0742C9.8442 11.1645 9.91803 11.2383 10.0083 11.2383H16.4477V12.7969C16.4477 12.9343 16.6077 13.0122 16.7143 12.9261L19.6244 10.6292C19.644 10.6139 19.6598 10.5942 19.6708 10.5719C19.6817 10.5495 19.6873 10.5249 19.6873 10.5C19.6873 10.4751 19.6817 10.4505 19.6708 10.4281C19.6598 10.4058 19.644 10.3861 19.6244 10.3708Z" fill="#9B9B9B"/>
</svg>
