<svg width="20" height="20" viewBox="0 0 20 20" fill="none" xmlns="http://www.w3.org/2000/svg">
<path d="M10.0005 18.3333C9.55849 18.3333 9.13457 18.1577 8.82201 17.8452C8.50945 17.5326 8.33385 17.1087 8.33385 16.6667H11.6672C11.6672 17.1087 11.4916 17.5326 11.179 17.8452C10.8665 18.1577 10.4425 18.3333 10.0005 18.3333ZM16.3214 18.25L13.9047 15.8333H3.33385V14.1667L5.00052 13.3333V8.74999C4.99802 8.19082 5.04885 7.63332 5.15219 7.08332L2.17969 4.10749L3.35885 2.92916L17.5005 17.0725L16.3214 18.25ZM15.0005 12.2158L6.90052 4.11499C7.33353 3.81475 7.82009 3.60032 8.33385 3.48332V1.66666H11.6672V3.48332C13.8172 3.99416 15.0005 5.86499 15.0005 8.74999V12.2167V12.2158Z" fill="#212121"/>
</svg>
