<svg width="19" height="19" viewBox="0 0 19 19" fill="none" xmlns="http://www.w3.org/2000/svg">
<g clip-path="url(#clip0_436_1479)">
<path d="M13.2357 15.637L12.7291 11.5805C12.6573 11.0059 12.378 10.4774 11.9439 10.0942C11.5097 9.7111 10.9505 9.49978 10.3715 9.5H8.62666C8.04789 9.50016 7.48909 9.71166 7.05526 10.0948C6.62143 10.4779 6.34242 11.0062 6.27065 11.5805L5.7632 15.637C5.73535 15.8599 5.75523 16.0861 5.82152 16.3007C5.88782 16.5153 5.99901 16.7133 6.14771 16.8816C6.29642 17.05 6.47923 17.1847 6.68401 17.277C6.88879 17.3692 7.11085 17.4168 7.33545 17.4167H11.6643C11.8888 17.4167 12.1108 17.369 12.3155 17.2767C12.5202 17.1844 12.7029 17.0496 12.8515 16.8813C13.0001 16.713 13.1112 16.515 13.1775 16.3005C13.2437 16.086 13.2636 15.8598 13.2357 15.637V15.637Z" stroke="#212121" stroke-width="1.3" stroke-linecap="round" stroke-linejoin="round"/>
<path d="M9.5 6.33331C10.8117 6.33331 11.875 5.26999 11.875 3.95831C11.875 2.64664 10.8117 1.58331 9.5 1.58331C8.18832 1.58331 7.125 2.64664 7.125 3.95831C7.125 5.26999 8.18832 6.33331 9.5 6.33331Z" stroke="#212121" stroke-width="1.3"/>
<path d="M3.16634 8.70829C4.04079 8.70829 4.74967 7.99941 4.74967 7.12496C4.74967 6.25051 4.04079 5.54163 3.16634 5.54163C2.29189 5.54163 1.58301 6.25051 1.58301 7.12496C1.58301 7.99941 2.29189 8.70829 3.16634 8.70829Z" stroke="#212121" stroke-width="1.3"/>
<path d="M15.8333 8.70829C16.7078 8.70829 17.4167 7.99941 17.4167 7.12496C17.4167 6.25051 16.7078 5.54163 15.8333 5.54163C14.9589 5.54163 14.25 6.25051 14.25 7.12496C14.25 7.99941 14.9589 8.70829 15.8333 8.70829Z" stroke="#212121" stroke-width="1.3"/>
<path d="M3.16655 11.0833H2.9243C2.5495 11.0833 2.18683 11.2162 1.90082 11.4584C1.6148 11.7006 1.424 12.0365 1.36234 12.4062L1.09872 13.9895C1.06089 14.2164 1.07293 14.4487 1.134 14.6705C1.19508 14.8922 1.30372 15.0979 1.45238 15.2734C1.60103 15.4489 1.78613 15.5899 1.9948 15.6866C2.20347 15.7833 2.4307 15.8333 2.66068 15.8333H5.54155" stroke="#212121" stroke-width="1.3" stroke-linecap="round" stroke-linejoin="round"/>
<path d="M15.833 11.0833H16.0753C16.4501 11.0833 16.8127 11.2162 17.0987 11.4584C17.3848 11.7006 17.5756 12.0365 17.6372 12.4062L17.9008 13.9895C17.9387 14.2164 17.9266 14.4487 17.8656 14.6705C17.8045 14.8922 17.6958 15.0979 17.5472 15.2734C17.3985 15.4489 17.2134 15.5899 17.0048 15.6866C16.7961 15.7833 16.5689 15.8333 16.3389 15.8333H13.458" stroke="#212121" stroke-width="1.3" stroke-linecap="round" stroke-linejoin="round"/>
</g>
<defs>
<clipPath id="clip0_436_1479">
<rect width="19" height="19" fill="white"/>
</clipPath>
</defs>
</svg>
