<svg width="55" height="48" viewBox="0 0 55 48" fill="none" xmlns="http://www.w3.org/2000/svg">
<g clip-path="url(#clip0_33_151)">
<path d="M9.61944 24.5906L9.61946 24.5907L16.2875 18.4114C15.9407 17.8889 15.4895 17.4347 14.9563 17.0782C14.1521 16.5406 13.1995 16.2511 12.2222 16.25C12.2218 16.25 12.2214 16.25 12.2211 16.25M9.61944 24.5906L0.894952 32.1213C0.321924 31.5587 0 30.7957 0 30V21C0 19.4087 0.643847 17.8826 1.7899 16.7574C2.93596 15.6321 4.49034 15 6.11111 15H12.2222L12.2211 16.25M9.61944 24.5906L9.61395 24.5958C9.07758 25.0989 8.64963 25.7051 8.35735 26.3783C8.06548 27.0506 7.91533 27.775 7.91666 28.5073C7.91511 29.2398 8.06518 29.9643 8.35712 30.6368C8.64946 31.3101 9.07759 31.9164 9.6142 32.4195L9.61948 32.4244L14.0278 36.5093V45C14.0278 45.4566 13.8432 45.8993 13.5071 46.2294C13.1702 46.5602 12.7084 46.75 12.2222 46.75H6.11111C5.62492 46.75 5.16316 46.5602 4.82625 46.2294C4.4901 45.8993 4.30556 45.4566 4.30556 45V33V31.75H3.05556C2.56937 31.75 2.10761 31.5602 1.77069 31.2294C1.43455 30.8993 1.25 30.4567 1.25 30V21C1.25 19.7477 1.75647 18.542 2.66564 17.6493C3.57559 16.7559 4.81454 16.25 6.11111 16.25L12.2211 16.25M9.61944 24.5906L12.2211 16.25M45.3885 24.5971L45.3885 24.5972C45.9225 25.1008 46.3488 25.7064 46.6404 26.3785C46.9321 27.0506 47.0828 27.7745 47.0828 28.5066C47.0828 29.2386 46.9321 29.9625 46.6404 30.6346C46.3488 31.3067 45.9225 31.9124 45.3885 32.416L45.3807 32.4233L45.3807 32.4233L40.9722 36.5101V45C40.9722 45.4566 41.1568 45.8993 41.4929 46.2294C41.8298 46.5602 42.2916 46.75 42.7778 46.75H48.8889C49.3751 46.75 49.8368 46.5602 50.1738 46.2294C50.5099 45.8993 50.6944 45.4567 50.6944 45V33V31.75H51.9444C52.4306 31.75 52.8924 31.5602 53.2293 31.2294C53.5655 30.8993 53.75 30.4567 53.75 30V21C53.75 19.7477 53.2435 18.542 52.3344 17.6493C51.4244 16.7559 50.1855 16.25 48.8889 16.25L42.7789 16.25L42.7778 16.25M45.3885 24.5971L42.7778 16.25M45.3885 24.5971L45.3805 24.5896L38.7122 18.4112M45.3885 24.5971L38.7122 18.4112M42.7778 16.25C41.8005 16.2511 40.848 16.5404 40.0438 17.0779C39.5104 17.4343 39.0591 17.8886 38.7122 18.4112M42.7778 16.25L38.7122 18.4112M34.8611 22.3755L41.4787 28.507L34.8611 34.6394V31.5V30.25H33.6111H21.3889H20.1389V31.5V34.6394L13.5213 28.507L20.1389 22.3746V25.5V26.75H21.3889H33.6111H34.8611V25.5V22.3755ZM21.3889 24.25V22.125C21.3897 21.9044 21.3245 21.6885 21.2013 21.504C21.0781 21.3196 20.9025 21.1747 20.6961 21.0875C20.4898 21.0003 20.2619 20.9746 20.0407 21.0135C19.8196 21.0525 19.615 21.1544 19.4524 21.3066L21.3889 24.25ZM11.8762 9.94366C11.0761 10.4685 10.1332 10.75 9.16667 10.75C7.87009 10.75 6.63114 10.2441 5.7212 9.35069C4.81203 8.45805 4.30556 7.2523 4.30556 6C4.30556 5.0657 4.58762 4.15045 5.11886 3.36986C5.65028 2.58899 6.40805 1.97695 7.29895 1.61463C8.19004 1.25224 9.17185 1.15708 10.1193 1.34211C11.0666 1.52712 11.9337 1.98324 12.6121 2.64932C13.2903 3.31515 13.7495 4.16067 13.9352 5.07766C14.121 5.99451 14.0259 6.9451 13.6609 7.81022C13.2958 8.67559 12.676 9.41896 11.8762 9.94366ZM48.5428 9.94366C47.7428 10.4685 46.7998 10.75 45.8333 10.75C44.5368 10.75 43.2978 10.2441 42.3879 9.35069C41.4787 8.45805 40.9722 7.2523 40.9722 6C40.9722 5.06571 41.2543 4.15045 41.7855 3.36986C42.3169 2.58899 43.0747 1.97695 43.9656 1.61463C44.8567 1.25224 45.8385 1.15708 46.786 1.34211C47.7333 1.52712 48.6004 1.98324 49.2788 2.64932C49.957 3.31515 50.4161 4.16067 50.6019 5.07766C50.7877 5.99451 50.6925 6.9451 50.3276 7.81022C49.9625 8.6756 49.3426 9.41897 48.5428 9.94366Z" stroke="#165432" stroke-width="2.5"/>
</g>
<defs>
<clipPath id="clip0_33_151">
<rect width="55" height="48" fill="white"/>
</clipPath>
</defs>
</svg>
