<svg width="25" height="25" viewBox="0 0 25 25" fill="none" xmlns="http://www.w3.org/2000/svg">
<g clip-path="url(#clip0_436_1490)">
<path d="M11.1056 13.7731V13.6481H10.9806H9.8809C9.77608 13.6481 9.69731 13.5988 9.64039 13.5183C9.58121 13.4345 9.54846 13.319 9.54863 13.2062V13.206C9.54863 13.1804 9.54683 13.1549 9.54508 13.1328C9.54469 13.1277 9.54429 13.1228 9.54391 13.1181C9.54251 13.1008 9.54127 13.0855 9.54049 13.0696C9.53853 13.0296 9.54067 13.0017 9.54783 12.9798C9.55685 12.9521 9.58591 12.8932 9.76978 12.8538L9.8686 12.8327V12.7316V12.7308V12.6783L14.7479 10.2141L14.8165 10.1795V10.1026V7.53808C14.8176 7.53601 14.8202 7.5316 14.8265 7.52481C14.8405 7.50966 14.8645 7.49144 14.8986 7.47362C14.9682 7.43719 15.0515 7.41663 15.1038 7.41663C15.1562 7.41663 15.2395 7.43719 15.3091 7.47362C15.3431 7.49144 15.3672 7.50966 15.3812 7.52481C15.3874 7.5316 15.3901 7.53601 15.3912 7.53808V7.64325V7.71912L15.4585 7.75414C15.8939 7.98067 16.3253 7.90941 16.7568 7.83814C16.7769 7.83483 16.7969 7.83151 16.817 7.82823C17.2537 7.75675 17.7178 7.69125 18.2775 7.86774V9.29959C17.6917 9.1328 17.2016 9.20469 16.7769 9.27424C16.7656 9.27609 16.7544 9.27793 16.7433 9.27976C16.2884 9.35439 15.9339 9.41256 15.5739 9.22524L15.3912 9.1302V9.33613V10.1026V10.1794L15.4597 10.2141L20.5164 12.7728L20.5221 12.7827L20.5199 12.8391L20.5801 12.8778C20.6785 12.9409 20.7514 13.0823 20.7514 13.2064C20.7514 13.3043 20.7052 13.4168 20.6233 13.5058C20.542 13.594 20.436 13.6481 20.3264 13.6481H19.2271H19.1021V13.7731V20.1296H17.7028V14.5833V14.4583H17.5778H15.9285H15.8035V14.5833V20.1296H14.4042V14.5833V14.4583H14.2792H12.6299H12.5049V14.5833V20.1296H11.1056V13.7731ZM9.4194 13.1292C9.42154 13.1557 9.42363 13.1815 9.42363 13.206L9.73891 12.8557L9.62016 12.8513L9.61535 12.8511L9.61536 12.851L9.50362 12.8425L9.49332 12.8417C9.40289 12.9252 9.41153 13.032 9.4194 13.1292ZM20.1058 20.1816L20.0684 20.1296H20.0043H19.7644V14.3032H24.8747V21.75H21.705L21.3527 21.402L21.3527 21.4019L21.3495 21.399L20.2596 20.3953L20.1058 20.1816ZM22.1134 19.1643H22.2384V19.0393V17.824V17.699H22.1134H20.8764H20.7514V17.824V19.0393V19.1643H20.8764H22.1134ZM22.1134 16.7338H22.2384V16.6088V15.3935V15.2685H22.1134H20.8764H20.7514V15.3935V16.6088V16.7338H20.8764H22.1134ZM23.7627 19.1643H23.8877V19.0393V17.824V17.699H23.7627H22.938H22.813V17.824V19.0393V19.1643H22.938H23.7627ZM23.7627 16.7338H23.8877V16.6088V15.3935V15.2685H23.7627H22.938H22.813V15.3935V16.6088V16.7338H22.938H23.7627ZM10.2029 20.1296H10.139L10.1015 20.1815L9.947 20.3958L8.85736 21.4395L8.50628 21.75H5.33301V14.3032H10.4433V20.1296H10.2029ZM7.26964 19.1643H7.39464V19.0393V17.824V17.699H7.26964H6.44499H6.31999V17.824V19.0393V19.1643H6.44499H7.26964ZM7.26964 16.7338H7.39464V16.6088V15.3935V15.2685H7.26964H6.44499H6.31999V15.3935V16.6088V16.7338H6.44499H7.26964ZM9.33127 19.1643H9.45627V19.0393V17.824V17.699H9.33127H8.09429H7.96929V17.824V19.0393V19.1643H8.09429H9.33127ZM9.33127 16.7338H9.45627V16.6088V15.3935V15.2685H9.33127H8.09429H7.96929V15.3935V16.6088V16.7338H8.09429H9.33127ZM20.5708 21.75H9.63687L10.6194 20.7847H19.5883L20.5708 21.75Z" fill="black" stroke="white" stroke-width="0.25"/>
</g>
<defs>
<clipPath id="clip0_436_1490">
<rect width="25" height="25" fill="white"/>
</clipPath>
</defs>
</svg>
