<svg width="54" height="54" viewBox="0 0 54 54" fill="none" xmlns="http://www.w3.org/2000/svg">
<path d="M20.25 6.75C21.9188 6.75 23.5501 7.24485 24.9376 8.17198C26.3252 9.0991 27.4066 10.4169 28.0452 11.9586C28.6839 13.5004 28.8509 15.1969 28.5254 16.8336C28.1998 18.4703 27.3962 19.9737 26.2162 21.1537C25.0362 22.3337 23.5328 23.1373 21.8961 23.4629C20.2594 23.7884 18.5629 23.6214 17.0211 22.9827C15.4794 22.3441 14.1616 21.2627 13.2345 19.8751C12.3074 18.4876 11.8125 16.8563 11.8125 15.1875C11.8125 12.9497 12.7015 10.8036 14.2838 9.22129C15.8661 7.63895 18.0122 6.75 20.25 6.75V6.75ZM20.25 3.375C17.9137 3.375 15.6299 4.06779 13.6873 5.36577C11.7448 6.66374 10.2307 8.5086 9.33668 10.6671C8.44262 12.8255 8.20869 15.2006 8.66448 17.492C9.12027 19.7834 10.2453 21.8882 11.8973 23.5402C13.5493 25.1922 15.6541 26.3172 17.9455 26.773C20.2369 27.2288 22.612 26.9949 24.7705 26.1008C26.9289 25.2068 28.7738 23.6927 30.0717 21.7502C31.3697 19.8076 32.0625 17.5238 32.0625 15.1875C32.0625 12.0546 30.818 9.05007 28.6027 6.8348C26.3874 4.61953 23.3829 3.375 20.25 3.375V3.375Z" fill="#165432"/>
<path d="M37.125 50.625H33.75V42.1875C33.75 39.9497 32.8611 37.8036 31.2787 36.2213C29.6964 34.6389 27.5503 33.75 25.3125 33.75H15.1875C12.9497 33.75 10.8036 34.6389 9.22129 36.2213C7.63895 37.8036 6.75 39.9497 6.75 42.1875V50.625H3.375V42.1875C3.375 39.0546 4.61953 36.0501 6.8348 33.8348C9.05007 31.6195 12.0546 30.375 15.1875 30.375H25.3125C28.4454 30.375 31.4499 31.6195 33.6652 33.8348C35.8805 36.0501 37.125 39.0546 37.125 42.1875V50.625Z" fill="#165432"/>
<path d="M37.125 6.75H54V10.125H37.125V6.75Z" fill="#165432"/>
<path d="M37.125 15.1875H54V18.5625H37.125V15.1875Z" fill="#165432"/>
<path d="M37.125 23.625H48.9375V27H37.125V23.625Z" fill="#165432"/>
</svg>
