<svg width="21" height="21" viewBox="0 0 21 21" fill="none" xmlns="http://www.w3.org/2000/svg">
<path d="M6.52559 10.5C6.52559 8.2526 8.31153 6.46666 10.5589 6.46666C12.8063 6.46666 14.5923 8.2526 14.5923 10.5C14.5923 12.7474 12.8063 14.5333 10.5589 14.5333C8.31153 14.5333 6.52559 12.7474 6.52559 10.5ZM7.59225 10.5C7.59225 12.1609 8.89797 13.4667 10.5589 13.4667C12.2199 13.4667 13.5256 12.1609 13.5256 10.5C13.5256 8.83904 12.2199 7.53332 10.5589 7.53332C8.89797 7.53332 7.59225 8.83904 7.59225 10.5Z" fill="#9B9B9B" stroke="white" stroke-width="0.1"/>
<path d="M19.1184 8.62259L19.1183 8.62262L19.1199 8.62307C19.506 8.73338 19.7837 9.12149 19.7837 9.50832V11.4917C19.7837 11.8761 19.5081 12.2083 19.1767 12.3191C19.1765 12.3191 19.1763 12.3192 19.1762 12.3192L17.4855 12.8439L17.4627 12.851L17.4539 12.8731L17.1039 13.7481L17.0952 13.7698L17.1063 13.7904L17.9223 15.3057C17.9224 15.3059 17.9225 15.3061 17.9226 15.3063C18.0881 15.638 18.0321 16.0808 17.7566 16.3563L16.3566 17.7563C16.0812 18.0318 15.6384 18.0877 15.3067 17.9223C15.3065 17.9222 15.3062 17.922 15.306 17.9219L13.7907 17.106L13.7701 17.0949L13.7484 17.1036L12.8734 17.4536L12.8513 17.4624L12.8442 17.4852L12.3196 19.1758C12.3195 19.176 12.3194 19.1762 12.3194 19.1763C12.2087 19.5078 11.8765 19.7833 11.492 19.7833H9.50866C9.12417 19.7833 8.79198 19.5078 8.68125 19.1763C8.6812 19.1762 8.68115 19.176 8.68109 19.1758L8.15641 17.4852L8.14935 17.4624L8.12723 17.4536L7.25223 17.1036L7.23053 17.0949L7.20995 17.106L5.69463 17.9219C5.69441 17.922 5.69419 17.9222 5.69397 17.9223C5.36227 18.0877 4.91949 18.0318 4.64401 17.7563L3.24401 16.3563C2.96854 16.0808 2.91257 15.638 3.07805 15.3063L3.89435 13.7904L3.90543 13.7698L3.89675 13.7481L3.54675 12.8731L3.53802 12.8513L3.51563 12.8441L1.88229 12.3191L1.8823 12.319L1.88073 12.3186C1.49105 12.2072 1.21699 11.8749 1.21699 11.4917V9.50832C1.21699 9.12374 1.49266 8.79147 1.82425 8.68083C1.82432 8.68081 1.8244 8.68078 1.82447 8.68076L3.45729 8.15592L3.47968 8.14873L3.48842 8.12689C3.54704 7.98032 3.6056 7.8193 3.66382 7.6592L3.66398 7.65874C3.72238 7.49816 3.78043 7.33852 3.83842 7.19356L3.84693 7.17227L3.83635 7.15192L3.07838 5.6943C3.07832 5.69418 3.07827 5.69407 3.07821 5.69395C2.91253 5.36221 2.96845 4.91924 3.24401 4.64368L4.64401 3.24368C4.91948 2.96821 5.36226 2.91223 5.69397 3.07771L7.20995 3.89401L7.23499 3.9075L7.25938 3.89286C7.54634 3.72069 7.83213 3.60649 8.17521 3.54931L8.20527 3.5443L8.21459 3.51529L8.73959 1.88196L8.74028 1.88218L8.74149 1.87373C8.79618 1.49089 9.12432 1.21666 9.50866 1.21666H11.492C11.8765 1.21666 12.2088 1.49228 12.3195 1.82384C12.3195 1.82394 12.3195 1.82403 12.3196 1.82413L12.8444 3.45696L12.8516 3.47935L12.8734 3.48808L13.7484 3.83808L13.7701 3.84676L13.7907 3.83568L15.3067 3.01938C15.6384 2.8539 16.0812 2.90987 16.3566 3.18535L17.7566 4.58535C18.0321 4.86082 18.0881 5.3036 17.9226 5.6353C17.9225 5.63552 17.9224 5.63574 17.9223 5.63596L17.1063 7.15128L17.0952 7.17186L17.1039 7.19356L17.4539 8.06856L17.4626 8.09039L17.485 8.09759L19.1184 8.62259ZM18.6816 11.3645L18.717 11.3537V11.3167V9.68332V9.64632L18.6816 9.63551L16.6102 9.00257L16.5577 8.74018L16.5578 8.74015L16.5567 8.73625C16.4389 8.32367 16.2622 7.91164 16.0271 7.50018L16.0271 7.50018L16.0265 7.49926L15.8663 7.23214L16.9026 5.33227L16.9205 5.29942L16.894 5.27297L15.7273 4.1063L15.7009 4.07985L15.668 4.09776L13.7682 5.13406L13.501 4.97378L13.5011 4.97377L13.5001 4.97324C13.0895 4.7386 12.6783 4.56217 12.2665 4.44429L11.9992 4.33737L11.3647 2.31833L11.3537 2.28332H11.317H9.68366H9.64696L9.63596 2.31833L9.0014 4.33737L8.7349 4.44398C8.26452 4.56191 7.85291 4.73854 7.44218 4.97324L7.44218 4.97323L7.44127 4.97378L7.17452 5.13383L5.33317 4.09808L5.30012 4.07949L5.2733 4.1063L4.10664 5.27297L4.08083 5.29878L4.09754 5.33122L5.07646 7.23147L4.91578 7.49926L4.91577 7.49926L4.91525 7.50018C4.68055 7.91091 4.50392 8.32252 4.38598 8.7929L4.27959 9.05887L2.31955 9.63535L2.28366 9.64591V9.68332V11.3167V11.3537L2.31905 11.3645L4.39049 11.9974L4.44296 12.2598L4.4428 12.2598L4.44392 12.2637C4.5618 12.6763 4.73846 13.0883 4.97358 13.4998L4.97357 13.4998L4.97412 13.5007L5.13439 13.7678L4.0981 15.6677L4.08018 15.7006L4.10664 15.727L5.2733 16.8937L5.29976 16.9201L5.3326 16.9022L7.23248 15.8659L7.4996 16.0262L7.49936 16.0266L7.50563 16.0293L8.73063 16.5543L8.7302 16.5553L8.74052 16.5574L9.0029 16.6098L9.63584 18.6813L9.64665 18.7167H9.68366H11.317H11.354L11.3648 18.6813L11.9977 16.6098L12.2601 16.5574L12.2602 16.5575L12.2641 16.5564C12.6766 16.4385 13.0887 16.2619 13.5001 16.0267L13.5001 16.0267L13.501 16.0262L13.7682 15.8659L15.668 16.9022L15.7009 16.9201L15.7273 16.8937L16.894 15.727L16.9205 15.7006L16.9026 15.6677L15.8663 13.7678L16.0265 13.5007L16.0269 13.501L16.0296 13.4947L16.5546 12.2697L16.5556 12.2701L16.5577 12.2598L16.6102 11.9974L18.6816 11.3645Z" fill="#9B9B9B" stroke="white" stroke-width="0.1"/>
</svg>
