<svg width="20" height="20" viewBox="0 0 20 20" fill="none" xmlns="http://www.w3.org/2000/svg">
<path d="M0.625 9.375V14.0625H14.0625V9.375H0.625ZM12.8125 12.8125H1.875V10.625H12.8125V12.8125Z" fill="#212121"/>
<path d="M15 9.375H16.25V14.0625H15V9.375Z" fill="#212121"/>
<path d="M17.1875 9.375H18.4375V14.0625H17.1875V9.375Z" fill="#212121"/>
<path d="M15.0556 6.76953C14.9057 6.54346 14.8335 6.27476 14.8499 6.00402C14.8662 5.73329 14.9702 5.47523 15.1462 5.26883C15.51 4.84577 15.7211 4.31281 15.7457 3.75542C15.7704 3.19803 15.6071 2.64851 15.2821 2.195L15.0536 1.875H13.6248L13.5537 1.92578L14.2649 2.92148C14.4271 3.14778 14.5086 3.42198 14.4963 3.70011C14.484 3.97824 14.3786 4.24418 14.1971 4.45527C13.8445 4.86894 13.6361 5.38611 13.6033 5.92867C13.5706 6.47124 13.7152 7.00973 14.0155 7.46281L14.2486 7.8125H15.751L15.0556 6.76953Z" fill="#212121"/>
<path d="M17.8681 6.76953C17.7182 6.54346 17.646 6.27476 17.6624 6.00402C17.6787 5.73329 17.7827 5.47523 17.9587 5.26883C18.3225 4.84577 18.5336 4.31281 18.5582 3.75542C18.5829 3.19803 18.4196 2.64851 18.0946 2.195L17.8661 1.875H16.4373L16.3662 1.92578L17.0774 2.92148C17.2396 3.14778 17.3211 3.42198 17.3088 3.70011C17.2965 3.97824 17.1911 4.24418 17.0096 4.45527C16.657 4.86894 16.4486 5.38611 16.4158 5.92867C16.3831 6.47124 16.5277 7.00973 16.828 7.46281L17.0611 7.8125H18.5635L17.8681 6.76953Z" fill="#212121"/>
</svg>
