<svg width="23" height="23" viewBox="0 0 23 23" fill="none" xmlns="http://www.w3.org/2000/svg">
<path d="M14.0156 10.3351L17.4662 13.5813H15.7734H15.5734V13.7813V17.5754H12.4578V13.7813V13.5813H12.2578H10.565L14.0156 10.3351ZM14.0156 22.8C9.16416 22.8 5.23125 18.8671 5.23125 14.0156C5.23125 9.16416 9.16416 5.23125 14.0156 5.23125C18.8671 5.23125 22.8 9.16416 22.8 14.0156C22.8 18.8671 18.8671 22.8 14.0156 22.8ZM14.0156 6.78438C10.0214 6.78438 6.78438 10.0224 6.78438 14.0156C6.78438 18.0089 10.0214 21.2469 14.0156 21.2469C18.0099 21.2469 21.2469 18.0089 21.2469 14.0156C21.2469 10.0224 18.0099 6.78438 14.0156 6.78438Z" fill="#9B9B9B" stroke="white" stroke-width="0.4"/>
</svg>
