<svg width="22" height="22" viewBox="0 0 22 22" fill="none" xmlns="http://www.w3.org/2000/svg">
<path d="M18.4444 16.4055C18.0391 15.4455 17.451 14.5735 16.7128 13.8381C15.9768 13.1005 15.1049 12.5125 14.1454 12.1064C14.1368 12.1021 14.1282 12.1 14.1196 12.0957C15.4581 11.1289 16.3282 9.5541 16.3282 7.77734C16.3282 4.83398 13.9434 2.44922 11.0001 2.44922C8.0567 2.44922 5.67193 4.83398 5.67193 7.77734C5.67193 9.5541 6.54205 11.1289 7.88052 12.0979C7.87193 12.1021 7.86334 12.1043 7.85474 12.1086C6.89224 12.5146 6.02857 13.0969 5.28736 13.8402C4.54982 14.5762 3.96178 15.4481 3.55572 16.4076C3.1568 17.347 2.94166 18.3542 2.92193 19.3746C2.92136 19.3975 2.92538 19.4204 2.93376 19.4417C2.94214 19.4631 2.95471 19.4825 2.97072 19.4989C2.98674 19.5153 3.00588 19.5284 3.02702 19.5373C3.04816 19.5462 3.07087 19.5508 3.0938 19.5508H4.38287C4.4774 19.5508 4.55259 19.4756 4.55474 19.3832C4.59771 17.7246 5.26373 16.1713 6.44107 14.9939C7.65923 13.7758 9.27701 13.1055 11.0001 13.1055C12.7231 13.1055 14.3409 13.7758 15.559 14.9939C16.7364 16.1713 17.4024 17.7246 17.4454 19.3832C17.4475 19.4777 17.5227 19.5508 17.6172 19.5508H18.9063C18.9292 19.5508 18.952 19.5462 18.9731 19.5373C18.9942 19.5284 19.0134 19.5153 19.0294 19.4989C19.0454 19.4825 19.058 19.4631 19.0664 19.4417C19.0747 19.4204 19.0788 19.3975 19.0782 19.3746C19.0567 18.3477 18.844 17.3486 18.4444 16.4055ZM11.0001 11.4727C10.0139 11.4727 9.0858 11.0881 8.38755 10.3898C7.68931 9.6916 7.30474 8.76348 7.30474 7.77734C7.30474 6.79121 7.68931 5.86309 8.38755 5.16484C9.0858 4.4666 10.0139 4.08203 11.0001 4.08203C11.9862 4.08203 12.9143 4.4666 13.6126 5.16484C14.3108 5.86309 14.6954 6.79121 14.6954 7.77734C14.6954 8.76348 14.3108 9.6916 13.6126 10.3898C12.9143 11.0881 11.9862 11.4727 11.0001 11.4727Z" fill="black"/>
</svg>
